<?xml version="1.0" encoding="UTF-8"?>
<svg version="1.1" xmlns="http://www.w3.org/2000/svg" width="512" height="512">
<path d="M0 0 C1.10544914 -0.01038551 1.10544914 -0.01038551 2.23323059 -0.02098083 C4.59694811 -0.03815958 6.96044176 -0.0445668 9.32421875 -0.046875 C10.12929871 -0.04821442 10.93437866 -0.04955383 11.76385498 -0.05093384 C23.76037869 -0.04659778 35.28667544 0.45249322 47.01171875 3.203125 C48.07003906 3.43128906 49.12835938 3.65945313 50.21875 3.89453125 C54.16552735 4.88263717 56.55543725 5.82112188 59.69921875 8.453125 C61.55726799 12.34618055 61.336666 14.08881513 60.01171875 18.203125 C55.60023754 24.93643842 48.80101485 30.47732133 43.07958984 36.09960938 C42.44102051 36.72931641 41.80245117 37.35902344 41.14453125 38.0078125 C40.56590332 38.57483887 39.98727539 39.14186523 39.39111328 39.72607422 C37.9079894 41.17422666 37.9079894 41.17422666 37.01171875 43.203125 C37.94564453 43.24179688 37.94564453 43.24179688 38.8984375 43.28125 C46.02554783 43.718618 52.98645749 44.76212759 60.01171875 46.015625 C60.93170654 46.16870117 61.85169434 46.32177734 62.79956055 46.47949219 C66.6754192 47.20088116 69.38711046 47.74293705 72.59375 50.10546875 C74.36039995 52.71894265 74.755189 54.94334767 74.58105469 58.08496094 C73.88946081 60.65797487 72.88536638 61.88261582 71.08984375 63.84375 C70.13984497 64.88257324 70.13984497 64.88257324 69.1706543 65.94238281 C65.20399384 70.09609488 61.15545644 74.16223415 57.07421875 78.203125 C56.19958984 79.07324219 55.32496094 79.94335938 54.42382812 80.83984375 C52.28874426 82.96326049 50.1513467 85.08428878 48.01171875 87.203125 C49.1419043 87.2124707 50.27208984 87.22181641 51.43652344 87.23144531 C55.63386296 87.27134892 59.83046979 87.33710826 64.02734375 87.41064453 C65.84300314 87.4388521 67.65878527 87.46006774 69.47460938 87.47412109 C72.08657664 87.49555409 74.69706849 87.54220385 77.30859375 87.59375 C78.11915222 87.59497864 78.92971069 87.59620728 79.76483154 87.59747314 C83.25306857 87.68791953 85.58629322 87.92335364 88.5324707 89.86083984 C93.50947921 97.74158248 89.41917828 113.41000627 88.35766602 122.42041016 C88.07060541 124.85881817 87.79515702 127.29833756 87.52148438 129.73828125 C87.34310646 131.30215859 87.16409396 132.86596371 86.984375 134.4296875 C86.90204117 135.15257965 86.81970734 135.8754718 86.73487854 136.62026978 C86.34886616 139.87818605 85.92704238 143.0475735 85.01171875 146.203125 C91.05675772 141.40585961 96.88229012 136.47703731 102.51171875 131.203125 C107.2610987 126.75503777 112.15054634 122.58312715 117.23046875 118.51171875 C120.99058164 115.39061381 124.56653878 112.08723604 128.12915039 108.74389648 C132.13585479 105.00183035 134.26818228 103.79385045 139.8984375 103.88134766 C143.48960774 104.42815477 145.8749229 106.56817533 148.51171875 108.890625 C149.0941333 109.37668213 149.67654785 109.86273926 150.27661133 110.36352539 C151.53096626 111.41045034 152.77925294 112.46468056 154.02197266 113.52539062 C156.1083152 115.28457418 158.23032216 116.99011837 160.3671875 118.6875 C161.81128795 119.83842871 163.25530016 120.98946814 164.69921875 122.140625 C165.38242187 122.68356201 166.065625 123.22649902 166.76953125 123.78588867 C172.72197687 128.59829724 175.38061128 131.9734382 176.63671875 139.703125 C176.82282715 140.81602905 176.82282715 140.81602905 177.01269531 141.95141602 C183.75853619 185.22823387 173.41128868 230.77495688 147.71313477 266.3527832 C140.41562908 276.17576014 132.29092105 285.12973686 123.44921875 293.578125 C113.7177213 303.22147483 106.3300447 315.13108947 100.01171875 327.203125 C99.40585937 328.36070312 98.8 329.51828125 98.17578125 330.7109375 C92.44970422 342.0980577 88.21764194 354.63449286 86.01171875 367.203125 C87.05972656 367.36748047 87.05972656 367.36748047 88.12890625 367.53515625 C89.03898438 367.69371094 89.9490625 367.85226562 90.88671875 368.015625 C92.24410156 368.24185547 92.24410156 368.24185547 93.62890625 368.47265625 C96.01171875 369.203125 96.01171875 369.203125 98.01171875 372.203125 C98.65663238 378.97471809 98.65663238 378.97471809 96.69921875 382.703125 C94.01171875 384.203125 94.01171875 384.203125 83.01171875 384.203125 C83.01171875 394.763125 83.01171875 405.323125 83.01171875 416.203125 C86.64171875 416.203125 90.27171875 416.203125 94.01171875 416.203125 C96.69921875 417.703125 96.69921875 417.703125 98.01171875 420.203125 C98.76484184 424.15499668 98.57762927 427.12520019 96.69921875 430.703125 C93.56216288 432.4540399 91.89562044 432.35932547 88.34375 432.296875 C87.34706299 432.28333984 86.35037598 432.26980469 85.32348633 432.25585938 C84.17916138 432.22975586 84.17916138 432.22975586 83.01171875 432.203125 C83.02219238 432.91331787 83.03266602 433.62351074 83.04345703 434.35522461 C83.08539361 437.61698779 83.11116361 440.87869396 83.13671875 444.140625 C83.16185547 445.81608398 83.16185547 445.81608398 83.1875 447.52539062 C83.24115108 456.67289913 83.02992947 464.88367953 77.01171875 472.203125 C72.06769305 477.11183623 67.84835453 479.91331179 60.8515625 480.74609375 C59.58441406 480.89691406 58.31726563 481.04773438 57.01171875 481.203125 C56.82061523 482.00008789 56.62951172 482.79705078 56.43261719 483.61816406 C55.55695899 487.23354708 54.65961779 490.84320436 53.76171875 494.453125 C53.31119141 496.33451172 53.31119141 496.33451172 52.8515625 498.25390625 C52.54863281 499.45917969 52.24570312 500.66445313 51.93359375 501.90625 C51.6612793 503.01645508 51.38896484 504.12666016 51.10839844 505.27050781 C49.84874899 508.63892037 48.83973035 509.99575604 46.01171875 512.203125 C42.82421875 512.71105957 42.82421875 512.71105957 39.01171875 512.72070312 C38.31530273 512.7277124 37.61888672 512.73472168 36.90136719 512.74194336 C34.60440943 512.75951696 32.30868854 512.74790419 30.01171875 512.734375 C28.41275802 512.73707013 26.81379888 512.74095273 25.21484375 512.74597168 C21.86572649 512.75186582 18.51703632 512.74330692 15.16796875 512.72460938 C10.87693284 512.70181935 6.58689764 512.71494296 2.29589844 512.73889923 C-1.00528491 512.7533598 -4.30623136 512.74875015 -7.60742188 512.73838806 C-9.18945433 512.73572146 -10.77150836 512.73898822 -12.35351562 512.74830627 C-14.56568288 512.75847679 -16.77623425 512.7429669 -18.98828125 512.72070312 C-20.87546875 512.71592957 -20.87546875 512.71592957 -22.80078125 512.71105957 C-26.56600498 512.11106356 -27.71330984 511.20324728 -29.98828125 508.203125 C-31.08496094 505.27050781 -31.08496094 505.27050781 -31.91015625 501.90625 C-32.36455078 500.09833984 -32.36455078 500.09833984 -32.828125 498.25390625 C-33.12847656 496.99964844 -33.42882812 495.74539063 -33.73828125 494.453125 C-34.05410156 493.18339844 -34.36992187 491.91367187 -34.6953125 490.60546875 C-35.47223725 487.47422656 -36.23600376 484.34036316 -36.98828125 481.203125 C-37.74391357 481.07832764 -38.4995459 480.95353027 -39.27807617 480.82495117 C-40.26912354 480.65455322 -41.2601709 480.48415527 -42.28125 480.30859375 C-43.26375732 480.14254639 -44.24626465 479.97649902 -45.25854492 479.80541992 C-51.7836161 478.36571412 -56.29857461 473.54875419 -59.98828125 468.203125 C-62.0554117 464.01975913 -62.22176384 460.5712592 -62.18359375 455.93359375 C-62.18076385 455.25259109 -62.17793396 454.57158844 -62.17501831 453.86994934 C-62.1638865 451.70999045 -62.13879582 449.55045706 -62.11328125 447.390625 C-62.10324236 445.91992789 -62.0941181 444.44922424 -62.0859375 442.97851562 C-62.06397038 439.38658214 -62.02948945 435.79489515 -61.98828125 432.203125 C-62.808125 432.24953125 -63.62796875 432.2959375 -64.47265625 432.34375 C-65.5503125 432.37984375 -66.62796875 432.4159375 -67.73828125 432.453125 C-68.805625 432.49953125 -69.87296875 432.5459375 -70.97265625 432.59375 C-74.65671853 432.11653986 -75.74035945 431.08987357 -77.98828125 428.203125 C-78.51953125 426.203125 -78.51953125 426.203125 -78.48828125 424.203125 C-78.49859375 423.543125 -78.50890625 422.883125 -78.51953125 422.203125 C-77.72750394 419.22137514 -76.44154939 418.03901441 -73.98828125 416.203125 C-70.97265625 415.8125 -70.97265625 415.8125 -67.73828125 415.953125 C-66.660625 415.98921875 -65.58296875 416.0253125 -64.47265625 416.0625 C-63.6528125 416.10890625 -62.83296875 416.1553125 -61.98828125 416.203125 C-62.06046875 414.89859375 -62.13265625 413.5940625 -62.20703125 412.25 C-62.70934659 402.89135483 -63.15977135 393.57791732 -62.98828125 384.203125 C-63.7359375 384.24953125 -64.48359375 384.2959375 -65.25390625 384.34375 C-73.21366508 384.63546891 -73.21366508 384.63546891 -76.67578125 382.703125 C-78.5477435 379.13748263 -78.76330434 376.14282572 -77.98828125 372.203125 C-76.48828125 369.703125 -76.48828125 369.703125 -73.98828125 368.203125 C-71.99414062 368.05664062 -71.99414062 368.05664062 -69.83203125 368.109375 C-68.56359375 368.1403125 -67.29515625 368.17125 -65.98828125 368.203125 C-73.6456109 337.03169456 -86.01665765 310.66731933 -109.36328125 287.890625 C-115.9207345 281.46944785 -121.58525643 274.61350953 -126.98828125 267.203125 C-127.41206055 266.62900879 -127.83583984 266.05489258 -128.27246094 265.46337891 C-145.99158685 241.18640586 -158.011917 209.32911589 -158.19140625 179.05859375 C-158.19710632 178.28993484 -158.2028064 177.52127594 -158.2086792 176.72932434 C-158.21808179 175.10480094 -158.2246442 173.48025888 -158.22851562 171.85571289 C-158.23810409 169.43534387 -158.26912246 167.01586923 -158.30078125 164.59570312 C-158.40073675 150.00033823 -156.47419486 135.85669078 -152.36328125 121.828125 C-152.11094727 120.96219727 -151.85861328 120.09626953 -151.59863281 119.20410156 C-138.84770415 77.34284825 -108.52105985 40.83880409 -70.27563477 19.80541992 C-48.73177511 8.35684893 -24.61477606 0.15738741 0 0 Z M-87.98828125 53.203125 C-88.49858887 53.64043945 -89.00889648 54.07775391 -89.53466797 54.52832031 C-119.40832699 80.36030574 -138.38959252 118.26466744 -141.59545898 157.57373047 C-144.22551669 196.78631735 -131.44485575 235.48583271 -106.34619141 265.65185547 C-103.00923184 269.4639808 -99.36148226 272.97519784 -95.734375 276.5078125 C-92.26331732 279.91468277 -89.06143991 283.43646593 -85.98828125 287.203125 C-85.22 288.14414062 -84.45171875 289.08515625 -83.66015625 290.0546875 C-65.0398502 313.31651422 -55.15598012 339.53232952 -47.98828125 368.203125 C-9.70828125 368.203125 28.57171875 368.203125 68.01171875 368.203125 C70.32171875 359.623125 72.63171875 351.043125 75.01171875 342.203125 C83.34354429 319.58816997 93.5383432 300.8509626 110.01171875 283.203125 C111.18351702 281.8533964 112.35045959 280.4994317 113.51171875 279.140625 C115.99031573 276.28026711 118.59868106 273.640924 121.32421875 271.015625 C146.71409596 245.71166954 161.07844099 208.70019181 161.19726562 173.08789062 C161.19718506 172.33548096 161.19710449 171.58307129 161.19702148 170.80786133 C161.19919631 168.53903096 161.21735828 166.27069703 161.23632812 164.00195312 C161.97753103 150.05856722 161.97753103 150.05856722 157.7253418 137.42358398 C156.14946026 135.98844626 154.57651725 134.88008179 152.76171875 133.765625 C151.63068749 132.99730377 150.50047526 132.22777545 149.37109375 131.45703125 C148.81228516 131.09625488 148.25347656 130.73547852 147.67773438 130.36376953 C145.92855879 129.14519088 144.41308423 127.7916691 142.83984375 126.35546875 C140.33568381 123.93711023 140.33568381 123.93711023 138.02661133 124.42041016 C134.63916513 125.73631377 132.13350358 128.25764118 129.44921875 130.640625 C128.5204895 131.45043823 128.5204895 131.45043823 127.57299805 132.27661133 C122.8666602 136.39670094 118.2555203 140.61721088 113.6484375 144.84765625 C111.03912465 147.17864239 108.36359055 149.38639687 105.63671875 151.578125 C101.38590976 155.00306253 97.36838682 158.60018784 93.38671875 162.328125 C79.11084519 175.56981776 79.11084519 175.56981776 73.63671875 175.828125 C69.02386896 175.03280607 69.02386896 175.03280607 67.01171875 172.203125 C65.24202297 160.33822234 68.09221048 147.19350286 69.51171875 135.390625 C69.87206013 132.36786866 70.22992552 129.34489112 70.58166504 126.32112122 C70.7990061 124.45501552 71.02124171 122.58947046 71.24938965 120.72465515 C71.89896331 115.17612629 72.11064625 109.79005575 72.01171875 104.203125 C60.31290308 103.29738109 48.61537743 102.67771749 36.88671875 102.328125 C35.60642288 102.28982512 35.60642288 102.28982512 34.30026245 102.2507515 C7.438743 101.07124955 7.438743 101.07124955 -15.75784302 112.83221436 C-21.32454123 118.36166145 -26.11369401 124.63418717 -30.18164062 131.33569336 C-31.98828125 134.203125 -31.98828125 134.203125 -33.98828125 135.203125 C-41.0868728 135.65382923 -41.0868728 135.65382923 -43.98828125 134.203125 C-45.6806029 130.81848169 -45.86580012 127.80946838 -44.98828125 124.203125 C-40.15295843 116.89711497 -32.658864 110.72107232 -26.46166992 104.54614258 C-24.65880784 102.74870264 -22.8614314 100.94589839 -21.06445312 99.14257812 C-19.91828978 97.99707453 -18.77181683 96.85188061 -17.625 95.70703125 C-17.08856369 95.16857071 -16.55212738 94.63011017 -15.99943542 94.07533264 C-12.21828797 90.31812836 -12.21828797 90.31812836 -9.98828125 89.203125 C-7.87951654 89.34895472 -5.77421177 89.54577279 -3.671875 89.765625 C8.77688007 90.59263485 19.81438176 91.28385797 29.6953125 82.64453125 C36.02091327 76.77327639 41.99747721 70.23470826 47.01171875 63.203125 C47.01171875 62.543125 47.01171875 61.883125 47.01171875 61.203125 C46.12911377 61.06213379 45.24650879 60.92114258 44.3371582 60.77587891 C41.04699082 60.24746136 37.75775175 59.71385221 34.46899414 59.17675781 C33.04843082 58.94584553 31.62753371 58.71697663 30.20629883 58.49023438 C28.15744224 58.16299143 26.10991892 57.82829377 24.0625 57.4921875 C22.21652222 57.19368896 22.21652222 57.19368896 20.33325195 56.88916016 C17.32375426 56.26757335 14.76494765 55.55835607 12.01171875 54.203125 C10.35909377 50.89787503 10.25416233 47.74916734 11.01171875 44.203125 C12.29516602 42.3203125 12.29516602 42.3203125 14.015625 40.453125 C14.65064941 39.76138184 15.28567383 39.06963867 15.93994141 38.35693359 C20.09357971 34.03883353 24.36767084 29.84915213 28.66601562 25.67578125 C29.35630859 24.99644531 30.04660156 24.31710938 30.7578125 23.6171875 C31.38357178 23.0082666 32.00933105 22.3993457 32.65405273 21.77197266 C34.22984519 20.29685927 34.22984519 20.29685927 34.01171875 18.203125 C30.22017413 17.86839366 26.42846389 17.53557659 22.63671875 17.203125 C21.55648437 17.10773437 20.47625 17.01234375 19.36328125 16.9140625 C18.33203125 16.82382812 17.30078125 16.73359375 16.23828125 16.640625 C15.28518066 16.55683594 14.33208008 16.47304688 13.35009766 16.38671875 C-23.06893874 13.52734149 -60.88361277 29.87833038 -87.98828125 53.203125 Z M-45.98828125 384.203125 C-45.98828125 394.763125 -45.98828125 405.323125 -45.98828125 416.203125 C-9.02828125 416.203125 27.93171875 416.203125 66.01171875 416.203125 C66.01171875 405.643125 66.01171875 395.083125 66.01171875 384.203125 C29.05171875 384.203125 -7.90828125 384.203125 -45.98828125 384.203125 Z M-45.98828125 432.203125 C-47.77713563 453.74345022 -47.77713563 453.74345022 -42.98828125 462.203125 C-38.69394988 464.97030796 -33.64805579 464.49185938 -28.70336914 464.4777832 C-27.77593399 464.48289413 -26.84849884 464.48800507 -25.89295959 464.49327087 C-22.83221962 464.50715228 -19.77170518 464.50621123 -16.7109375 464.50390625 C-14.58011288 464.50779386 -12.44928903 464.51212866 -10.31846619 464.51689148 C-5.85396817 464.52435049 -1.38954924 464.52406462 3.07495117 464.51879883 C8.79257798 464.51300342 14.50988093 464.52993863 20.22745419 464.5531435 C24.62754709 464.56788358 29.02756203 464.56875218 33.42767525 464.56563377 C35.5355754 464.5661468 37.64347994 464.57138113 39.75135612 464.58144569 C42.70025489 464.59379843 45.64852325 464.58702528 48.59741211 464.57543945 C49.46565613 464.58308319 50.33390015 464.59072693 51.22845459 464.59860229 C56.17937454 464.55566446 59.83019682 464.15261988 64.01171875 461.203125 C67.49728146 453.3867457 67.49728146 453.3867457 66.01171875 432.203125 C29.05171875 432.203125 -7.90828125 432.203125 -45.98828125 432.203125 Z M-18.98828125 480.203125 C-17.51977232 490.35606111 -17.51977232 490.35606111 -14.98828125 496.203125 C1.51171875 496.203125 18.01171875 496.203125 35.01171875 496.203125 C38.16078995 487.6503386 38.16078995 487.6503386 39.01171875 480.203125 C19.87171875 480.203125 0.73171875 480.203125 -18.98828125 480.203125 Z " fill="#000000" transform="translate(245.98828125,-0.203125)"/>
<path d="M0 0 C3.25737014 2.33862472 4.23501049 4.16980379 5 8 C5.16159324 9.48270665 5.29104621 10.96913937 5.39453125 12.45703125 C7.64785326 41.77500941 18.12106436 69.0978987 40.5625 89.125 C43.43795117 91.91993854 44.57564361 93.71028272 44.8125 97.75 C44.48770225 101.04926136 44.07184556 101.91336271 41.875 104.5625 C38.33933859 106.33033071 36.89612263 106.84034017 33 106 C30.02887876 103.97309102 27.55415357 101.52140801 25 99 C24.27554688 98.33613281 23.55109375 97.67226563 22.8046875 96.98828125 C16.46335323 91.01151847 11.7148636 84.2605314 7 77 C6.46632812 76.22398437 5.93265625 75.44796875 5.3828125 74.6484375 C-6.09842426 57.08524829 -12.08329676 34.60887404 -12.3125 13.8125 C-12.34150391 12.92369141 -12.37050781 12.03488281 -12.40039062 11.11914062 C-12.46332079 4.6760597 -12.46332079 4.6760597 -10.23046875 1.41796875 C-6.78006874 -0.77554299 -3.95437065 -0.81198576 0 0 Z " fill="#000000" transform="translate(140,160)"/>
</svg>
